# xmcd
#
# Track frame offsets: 
#        187
#        13605
#        30127
#        41372
#        52930
#        67780
#        81445
#        97197
#        110527
#        126360
#
# Disc length: 1860 seconds
#
# Revision: 4
# Processed by: cddbd v1.5.2PL0 Copyright (c) Steve Scherf et al.
# Submitted via: ExactAudioCopy v0.99pb4
#
DISCID=7507420a
DTITLE=Oak Ridge Boys - Greatest Hits
DYEAR=1980
DGENRE=Country
TTITLE0=You're The One
TTITLE1=I'll Be True To You
TTITLE2=Trying To Love Two Women
TTITLE3=Cryin' Again
TTITLE4=Dream On
TTITLE5=Leaving Lousiana In The Broad Daylight
TTITLE6=Heart Of Mine
TTITLE7=Come On In
TTITLE8=Sail Away
TTITLE9=Y'all Come Back Saloon
EXTD=
EXTT0=
EXTT1=
EXTT2=
EXTT3=
EXTT4=
EXTT5=
EXTT6=
EXTT7=
EXTT8=
EXTT9=
PLAYORDER=
